<mxfile host="Electron" agent="Mozilla/5.0 (X11; Linux x86_64) AppleWebKit/537.36 (KHTML, like Gecko) draw.io/24.7.8 Chrome/128.0.6613.36 Electron/32.0.1 Safari/537.36" version="24.7.8">
  <diagram name="welcome figure" id="zl6ZumjYnFfMUAFqLDAh">
    <mxGraphModel dx="989" dy="578" grid="1" gridSize="10" guides="1" tooltips="1" connect="1" arrows="1" fold="1" page="1" pageScale="1" pageWidth="850" pageHeight="1100" math="0" shadow="0">
      <root>
        <mxCell id="0" />
        <mxCell id="1" parent="0" />
        <mxCell id="CRDmnUIXy0GdyubuIBd--16" value="" style="rounded=0;whiteSpace=wrap;html=1;fillColor=none;" vertex="1" parent="1">
          <mxGeometry x="115" y="560" width="210" height="200" as="geometry" />
        </mxCell>
        <mxCell id="CRDmnUIXy0GdyubuIBd--4" style="edgeStyle=orthogonalEdgeStyle;rounded=0;orthogonalLoop=1;jettySize=auto;html=1;exitX=0.5;exitY=1;exitDx=0;exitDy=0;entryX=0.25;entryY=0;entryDx=0;entryDy=0;" edge="1" parent="1" source="CRDmnUIXy0GdyubuIBd--1" target="CRDmnUIXy0GdyubuIBd--3">
          <mxGeometry relative="1" as="geometry" />
        </mxCell>
        <mxCell id="CRDmnUIXy0GdyubuIBd--1" value="labeled social media posts" style="rounded=0;whiteSpace=wrap;html=1;" vertex="1" parent="1">
          <mxGeometry x="80" y="160" width="120" height="60" as="geometry" />
        </mxCell>
        <mxCell id="CRDmnUIXy0GdyubuIBd--5" style="edgeStyle=orthogonalEdgeStyle;rounded=0;orthogonalLoop=1;jettySize=auto;html=1;exitX=0.5;exitY=1;exitDx=0;exitDy=0;entryX=0.75;entryY=0;entryDx=0;entryDy=0;" edge="1" parent="1" source="CRDmnUIXy0GdyubuIBd--2" target="CRDmnUIXy0GdyubuIBd--3">
          <mxGeometry relative="1" as="geometry" />
        </mxCell>
        <mxCell id="CRDmnUIXy0GdyubuIBd--2" value="pretrained-model" style="rounded=0;whiteSpace=wrap;html=1;" vertex="1" parent="1">
          <mxGeometry x="240" y="160" width="120" height="60" as="geometry" />
        </mxCell>
        <mxCell id="CRDmnUIXy0GdyubuIBd--7" style="edgeStyle=orthogonalEdgeStyle;rounded=0;orthogonalLoop=1;jettySize=auto;html=1;exitX=0.5;exitY=1;exitDx=0;exitDy=0;" edge="1" parent="1" source="CRDmnUIXy0GdyubuIBd--3" target="CRDmnUIXy0GdyubuIBd--6">
          <mxGeometry relative="1" as="geometry" />
        </mxCell>
        <mxCell id="CRDmnUIXy0GdyubuIBd--3" value="offensive language detection system" style="rounded=0;whiteSpace=wrap;html=1;" vertex="1" parent="1">
          <mxGeometry x="160" y="280" width="120" height="60" as="geometry" />
        </mxCell>
        <mxCell id="CRDmnUIXy0GdyubuIBd--12" style="edgeStyle=orthogonalEdgeStyle;rounded=0;orthogonalLoop=1;jettySize=auto;html=1;exitX=0.5;exitY=1;exitDx=0;exitDy=0;entryX=0.5;entryY=0;entryDx=0;entryDy=0;" edge="1" parent="1" source="CRDmnUIXy0GdyubuIBd--6" target="CRDmnUIXy0GdyubuIBd--11">
          <mxGeometry relative="1" as="geometry" />
        </mxCell>
        <mxCell id="CRDmnUIXy0GdyubuIBd--6" value="extract errors" style="rounded=0;whiteSpace=wrap;html=1;" vertex="1" parent="1">
          <mxGeometry x="160" y="370" width="120" height="60" as="geometry" />
        </mxCell>
        <mxCell id="CRDmnUIXy0GdyubuIBd--10" style="edgeStyle=orthogonalEdgeStyle;rounded=0;orthogonalLoop=1;jettySize=auto;html=1;exitX=0.5;exitY=1;exitDx=0;exitDy=0;entryX=0.5;entryY=0;entryDx=0;entryDy=0;" edge="1" parent="1" source="CRDmnUIXy0GdyubuIBd--8" target="CRDmnUIXy0GdyubuIBd--9">
          <mxGeometry relative="1" as="geometry" />
        </mxCell>
        <mxCell id="CRDmnUIXy0GdyubuIBd--8" value="optimal number of clusters" style="rounded=0;whiteSpace=wrap;html=1;" vertex="1" parent="1">
          <mxGeometry x="160" y="580" width="120" height="60" as="geometry" />
        </mxCell>
        <mxCell id="CRDmnUIXy0GdyubuIBd--15" style="edgeStyle=orthogonalEdgeStyle;rounded=0;orthogonalLoop=1;jettySize=auto;html=1;exitX=0.5;exitY=1;exitDx=0;exitDy=0;" edge="1" parent="1" source="CRDmnUIXy0GdyubuIBd--9" target="CRDmnUIXy0GdyubuIBd--14">
          <mxGeometry relative="1" as="geometry" />
        </mxCell>
        <mxCell id="CRDmnUIXy0GdyubuIBd--9" value="run kmeans" style="rounded=0;whiteSpace=wrap;html=1;" vertex="1" parent="1">
          <mxGeometry x="160" y="670" width="120" height="60" as="geometry" />
        </mxCell>
        <mxCell id="CRDmnUIXy0GdyubuIBd--13" style="edgeStyle=orthogonalEdgeStyle;rounded=0;orthogonalLoop=1;jettySize=auto;html=1;exitX=0.5;exitY=1;exitDx=0;exitDy=0;entryX=0.5;entryY=0;entryDx=0;entryDy=0;" edge="1" parent="1" source="CRDmnUIXy0GdyubuIBd--11" target="CRDmnUIXy0GdyubuIBd--8">
          <mxGeometry relative="1" as="geometry" />
        </mxCell>
        <mxCell id="CRDmnUIXy0GdyubuIBd--11" value="calculate embeddings" style="rounded=0;whiteSpace=wrap;html=1;" vertex="1" parent="1">
          <mxGeometry x="160" y="470" width="120" height="60" as="geometry" />
        </mxCell>
        <mxCell id="CRDmnUIXy0GdyubuIBd--14" value="prompt an llm to explain errors" style="rounded=0;whiteSpace=wrap;html=1;" vertex="1" parent="1">
          <mxGeometry x="160" y="790" width="120" height="60" as="geometry" />
        </mxCell>
      </root>
    </mxGraphModel>
  </diagram>
</mxfile>
